<?xml version="1.0" encoding="UTF-8"?>
<svg id="Livello_1" data-name="Livello 1" xmlns="http://www.w3.org/2000/svg" width="1057.6" height="280" version="1.1" viewBox="0 0 1057.6 280">
  <defs>
    <style>
      .cls-1 {
        fill: #f5f5f5;
      }

      .cls-1, .cls-2, .cls-3, .cls-4 {
        stroke-width: 0px;
      }

      .cls-2 {
        fill: #54ae4a;
      }

      .cls-3 {
        fill: #024056;
      }

      .cls-4 {
        fill: #e32729;
      }
    </style>
  </defs>
  <rect class="cls-1" x="791.4" y="252.2" width="72.8" height="13.9"/>
  <rect class="cls-2" x="718.4" y="252.2" width="73" height="13.9"/>
  <rect class="cls-4" x="864.2" y="252.2" width="73" height="13.9"/>
  <rect class="cls-3" x="674.3" y="25.9" width="4" height="240.4"/>
  <g>
    <path class="cls-3" d="M617.2,39.1h4.1c.9,0,1.6,0,2.1-.3s.9-.5,1.1-.9c.3-.4.4-.8.4-1.3s-.2-1.2-.7-1.7c-.5-.4-1.3-.7-2.4-.7h-4.6v4.9h0ZM615.3,47.2v-14.5h6.4c1.3,0,2.3,0,2.9.4.7.3,1.2.7,1.6,1.4.4.7.6,1.4.6,2.2s-.3,1.9-1,2.6c-.7.7-1.7,1.1-3.1,1.3.5.2.9.5,1.2.7.6.5,1.1,1.2,1.6,1.9l2.5,3.9h-2.4l-1.9-3c-.6-.9-1-1.5-1.4-2s-.7-.8-1-1-.6-.3-.9-.4c-.2,0-.6,0-1.1,0h-2.2v6.4h-1.8v.2Z"/>
    <path class="cls-3" d="M621,52.4c-6.8,0-12.3-5.5-12.3-12.3s5.5-12.3,12.3-12.3,12.3,5.5,12.3,12.3-5.5,12.3-12.3,12.3M621,26.5c-7.5,0-13.6,6.1-13.6,13.6s6.1,13.6,13.6,13.6,13.6-6.1,13.6-13.6-6.1-13.6-13.6-13.6"/>
    <path class="cls-3" d="M462,224.1v14h4.4c3.2,0,5.3-.3,6.4-.8s1.9-1.3,2.5-2.4c.6-1.1.9-2.4.9-3.8s-.4-3.3-1.3-4.5-1.9-1.9-3.2-2.2c-1-.2-2.9-.3-5.8-.3h-3.9ZM453.9,265.3v-49.5h13c4.9,0,8.1.2,9.6.7,2.3.7,4.2,2.4,5.8,4.8,1.5,2.5,2.3,5.7,2.3,9.6s-.4,5.6-1.3,7.7c-.9,2.1-2,3.7-3.4,4.9s-2.8,2-4.2,2.3c-1.9.5-4.7.7-8.4.7h-5.3v18.7h-8.1Z"/>
    <path class="cls-3" d="M497.2,247.3c0,3.6.7,6.3,2,8.2,1.4,1.9,3,2.8,5,2.8s3.7-.9,5-2.8c1.4-1.9,2-4.6,2-8.2s-.7-6.2-2-8.1c-1.4-1.9-3-2.8-5-2.8s-3.7.9-5,2.8c-1.3,1.8-2,4.6-2,8.1M489.4,246.8c0-3.1.6-6.2,1.9-9.1,1.3-3,3-5.2,5.3-6.8s4.9-2.3,7.7-2.3c4.4,0,8,1.8,10.8,5.3s4.2,8,4.2,13.4-1.4,9.9-4.2,13.5-6.4,5.4-10.7,5.4-5.2-.7-7.6-2.2-4.2-3.7-5.5-6.5c-1.3-3.1-1.9-6.6-1.9-10.7"/>
    <path class="cls-3" d="M524.7,229.4h7.1v4.9c2.5-3.8,5.5-5.7,9-5.7s3.5.5,4.8,1.4c1.4.9,2.5,2.4,3.4,4.3,1.3-1.9,2.6-3.3,4.1-4.3,1.5-.9,3-1.4,4.7-1.4s3.9.5,5.4,1.6,2.6,2.6,3.3,4.7c.5,1.5.8,4,.8,7.4v22.9h-7.7v-20.5c0-3.6-.3-5.9-.8-6.9-.7-1.3-1.8-2-3.3-2s-2.1.4-3,1.2-1.6,2-2,3.6-.6,4-.6,7.4v17.2h-7.7v-19.6c0-3.5,0-5.7-.4-6.8-.3-1-.7-1.8-1.3-2.3s-1.3-.7-2.3-.7-2.2.4-3.2,1.2c-.9.8-1.6,1.9-2,3.4s-.6,3.9-.6,7.4v17.4h-7.7v-35.8Z"/>
    <path class="cls-3" d="M582.3,246.7c0,4,.6,7,1.9,8.9,1.3,1.9,2.9,2.9,4.7,2.9s3.3-.9,4.4-2.6c1.2-1.8,1.8-4.7,1.8-8.7s-.6-6.6-1.8-8.4c-1.2-1.8-2.7-2.7-4.5-2.7s-3.4.9-4.7,2.7c-1.2,1.8-1.8,4.4-1.8,7.9M574.7,229.4h7.1v5.3c.9-1.8,2.2-3.3,3.8-4.4,1.6-1.1,3.3-1.7,5.3-1.7,3.4,0,6.2,1.6,8.6,4.9,2.3,3.3,3.5,7.8,3.5,13.6s-1.2,10.6-3.5,14c-2.4,3.3-5.2,5-8.6,5s-3.1-.4-4.4-1.2c-1.3-.8-2.7-2.1-4.1-4v18.1h-7.7v-49.6h0Z"/>
    <path class="cls-3" d="M626.2,244.3c0-2.7-.6-4.8-1.7-6.3-1.1-1.4-2.4-2.1-4-2.1s-3.1.7-4.1,2.3c-1.1,1.5-1.6,3.6-1.6,6.1h11.4ZM625.8,253.8l7.6,1.6c-1,3.5-2.5,6.1-4.6,7.9-2.1,1.8-4.8,2.7-7.9,2.7-5,0-8.8-2-11.2-6.1-1.9-3.3-2.9-7.4-2.9-12.4s1.3-10.6,3.8-14,5.7-5.1,9.5-5.1,7.7,1.8,10.2,5.3,3.7,8.9,3.6,16.2h-19.2c0,2.8.7,5,1.9,6.6s2.7,2.3,4.4,2.3,2.2-.4,3-1.2c.8-.6,1.4-2,1.8-3.8"/>
    <path class="cls-3" d="M244.9,124.7c-17.8-31.1-52.1-52.6-91.9-54.1-1.5,0-3,0-4.6,0-5.3,0-10.4.6-15.4,1.7,15.5-13.2,35.4-21.1,57.2-21.1,43.6,0,79.9,31.8,87.6,73.7h-32.9ZM167.3,256.1v-26.8c30.8-18.4,51.4-51.2,51.4-88.6h-.1c0-7.4-1.1-14.5-3.3-21.2,14.2,14.7,22.9,34.1,22.9,55.4.1,39.8-30.3,73.1-70.9,81.2M108.7,226.3c-41.7,0-76.6-28.5-85.4-66.6h29.3c19.4,30.7,55,51.3,95.8,51.3s7.9-.3,11.7-1c-14.5,10.2-32.2,16.3-51.4,16.3M148.4,88c29.1,0,52.7,23.6,52.7,52.7s-23.6,52.7-52.7,52.7-52.7-23.6-52.7-52.7,23.6-52.7,52.7-52.7M129.4,21.4v27.1c-27.7,17.5-46.9,47-50.5,81.2-.6,3.6-.8,7.2-.8,11,0,7.6,1.2,14.9,3.4,21.7-15.3-15.2-24.7-35.5-24.7-57.9,0-40.9,31.1-75,72.6-83.1M188.5,31.3c-14.2,0-27.7,2.7-40.2,7.5V1.1c-61.5,0-111.4,47-111.4,104.9s2.2,23.8,6.2,34.7H2c0,57.5,48.5,104.2,108.4,104.2s26.2-2.3,38-6.6v37.7c60.4,0,109.5-46,109.5-102.8s-1.9-21.9-5.4-32h46.3c0-60.7-49.4-109.9-110.3-109.9"/>
    <path class="cls-3" d="M321.6,114.8c0,22.5,9,43,23.7,58.7,14.8,15.6,35.4,26.4,58.6,29.4v-24.2c-16.9-2.1-31.8-10-42.6-21.3-10.7-11.4-17.2-26.3-17.2-42.6s6.5-31.2,17.2-42.6c10.8-11.4,25.8-19.2,42.7-21.3v-24.1c-23.3,2.9-43.9,13.7-58.6,29.4-14.9,15.6-23.8,36.1-23.8,58.6"/>
    <path class="cls-3" d="M442.7,170.5V58.5c10.3,5.6,19,13.6,25,23.2,6.1,9.6,9.5,20.8,9.5,32.8s-3.5,23.2-9.5,32.8c-6,9.6-14.7,17.6-25,23.2M499.8,114.5c0-18.3-5.9-35.2-16-49.4-10.1-14.1-24.4-25.4-41.2-32.3-4-1.6-8.1-3-12.3-4.1-4.2-1.1-8.6-2-13-2.5v176.5h.2c23.2-3,43.7-13.8,58.5-29.5,14.9-15.6,23.8-36.2,23.8-58.7"/>
    <path class="cls-3" d="M573.6,150.7c3.9-5.9,8.4-13.1,11.9-20.7,3.5-7.5,6.1-15.4,6.1-22.7,0-16.7-5.9-32.3-16-45.2s-24.4-23.3-41.2-29.6c-4-1.5-8.1-2.7-12.3-3.8-4.2-1-8.5-1.8-13-2.3v176.4h25.2v-20.6h0c0-.1,0-.3,0-.4V56.1c10.3,5.1,19,12.5,25,21.3,6.1,8.8,9.5,19.1,9.5,30s-2.3,17.3-6.4,24.9c-4.1,7.6-17.5,19.8-17.5,19.8,0,.1,31,25.8,31,25.8l30.2,25h28.4l-30.5-26.1-30.3-26.1Z"/>
  </g>
  <g>
    <path class="cls-3" d="M760.1,64.3h-4.7l-9.6-30.7-9.6,30.7h-4.6l-11.6-37.8h4.6l9.4,31,9.6-31h4.3l9.6,31,9.4-31h4.7l-11.5,37.8Z"/>
    <path class="cls-3" d="M805.2,64.3h-27.6V26.5h27.5v4h-23.1v12.8h21.4v4h-21.4v12.9h23.1v4.1h0Z"/>
    <path class="cls-3" d="M740.8,79.5c8.5,0,13.9,5.2,13.9,13s-5.5,13.2-14.3,13.2h-8.9v11.6h-9.3v-37.8h18.6ZM739.7,97.9c3.6,0,5.8-2.1,5.8-5.3s-2.2-5.2-5.8-5.2h-8.2v10.5h8.2Z"/>
    <path class="cls-3" d="M793.4,100.3c0,10.8-6.7,17.9-16.8,17.9s-17.1-7-17.1-17.9v-20.8h9.3v20.8c0,5.8,3.1,9.3,7.8,9.3s7.4-3.6,7.4-9.3v-20.8h9.3v20.8h0Z"/>
    <path class="cls-3" d="M843.4,117.3h-9v-20.1l-10.6,20.1h-4.3l-10.7-20.3v20.2h-9v-37.7h9.1l12.7,24,12.7-24h9.1v37.8h0Z"/>
    <path class="cls-3" d="M868.5,79.5c8.5,0,13.9,5.2,13.9,13s-5.5,13.2-14.3,13.2h-8.9v11.6h-9.3v-37.8h18.6ZM867.5,97.9c3.6,0,5.8-2.1,5.8-5.3s-2.2-5.2-5.8-5.2h-8.2v10.5h8.2Z"/>
    <path class="cls-3" d="M740,170.3h-4.5v-13.2l-15.6-24.6h5l12.9,20.1,12.9-20.1h5.1l-15.8,24.5v13.3Z"/>
    <path class="cls-3" d="M798.9,151.4c0,11-8.6,19.6-19.5,19.6s-19.6-8.6-19.6-19.6,8.6-19.6,19.6-19.6c11,0,19.5,8.6,19.5,19.6ZM794.4,151.4c0-8.7-6.6-15.5-15-15.5s-15.1,6.8-15.1,15.5,6.6,15.4,15.1,15.4c8.4,0,15-6.7,15-15.4Z"/>
    <path class="cls-3" d="M838.2,153.8c0,10.3-6.3,17.3-15.7,17.3s-15.9-6.9-15.9-17.3v-21.3h4.5v21.3c0,7.8,4.6,13,11.4,13s11.3-5.1,11.3-13v-21.3h4.5v21.3h0Z"/>
    <path class="cls-3" d="M873.4,170.3l-14.4-16.2h-6.9v16.2h-4.5v-37.8h17.5c7.4,0,12.3,4.3,12.3,10.8s-5,10.8-12.3,10.8h-.7l14.6,16.2h-5.6ZM865.1,150c4.7,0,7.9-2.7,7.9-6.8s-3.2-6.8-7.9-6.8h-13v13.6h13Z"/>
    <path class="cls-3" d="M760,209.1c-1.7,9.5-9.4,15-19.1,15s-20.1-8.6-20.1-19.7,8.9-19.7,20.1-19.7,17.2,5.5,19,14.5l-9.1,2.1c-1.2-5.5-5-8.1-9.9-8.1s-10.8,4.8-10.8,11.2,4.8,11.3,10.8,11.3,8.6-2.7,9.9-8.3l9.2,1.7Z"/>
    <path class="cls-3" d="M799.7,223.3h-9.2v-14.9h-15.9v14.9h-9.3v-37.8h9.3v14.7h15.9v-14.7h9.2v37.8Z"/>
    <path class="cls-3" d="M835.7,223.3h-29.4v-37.8h29.3v8h-20v7.1h18.3v7.6h-18.3v7.1h20.1v8h0Z"/>
    <path class="cls-3" d="M885.1,223.3h-9v-20.1l-10.6,20.1h-4.3l-10.7-20.3v20.2h-9v-37.8h9.1l12.7,24,12.7-24h9.1v37.9Z"/>
    <path class="cls-3" d="M891.6,223.3v-37.8h9.3v37.8h-9.3Z"/>
    <path class="cls-3" d="M945.3,209.1c-1.7,9.5-9.4,15-19.1,15s-20.1-8.6-20.1-19.7,8.9-19.7,20.1-19.7,17.2,5.5,19,14.5l-9.1,2.1c-1.2-5.5-5-8.1-9.9-8.1s-10.8,4.8-10.8,11.2,4.8,11.3,10.8,11.3,8.6-2.7,9.9-8.3l9.2,1.7Z"/>
    <path class="cls-3" d="M978.4,223.3l-2.6-6.9h-15.9l-2.6,6.9h-10l15.8-37.8h9.5l15.8,37.8h-10ZM967.8,196l-4.8,12.4h9.6l-4.8-12.4Z"/>
    <path class="cls-3" d="M1019.5,223.3h-27.9v-37.8h9.3v29.7h18.6v8.1h0Z"/>
    <path class="cls-3" d="M1055.1,195.6l-9.1,1.9c-.7-3.6-3.6-5.3-6.6-5.3s-5.1,1.7-5.1,3.8.7,2.7,3,3.2l7.8,1.7c6.5,1.5,10.4,5,10.4,11s-7.2,12.2-15.6,12.2-15.5-4.1-16.5-11.4l9.6-1.9c1,3.9,3.7,5.6,7.4,5.6s5.6-1.6,5.6-3.9-.8-2.8-3.5-3.3l-7.9-1.7c-5.4-1.2-10.2-4.1-10.2-10.9s6.1-11.9,14.9-11.9c8.5-.1,14.4,4,15.8,10.9Z"/>
  </g>
</svg>